<?xml version="1.0" standalone="no"?>
<!DOCTYPE svg PUBLIC "-//W3C//DTD SVG 20010904//EN"
 "http://www.w3.org/TR/2001/REC-SVG-20010904/DTD/svg10.dtd">
<svg version="1.0" xmlns="http://www.w3.org/2000/svg"
 width="900.000000pt" height="800.000000pt" viewBox="0 0 900.000000 800.000000"
 preserveAspectRatio="xMidYMid meet">

<g transform="translate(0.000000,800.000000) scale(0.100000,-0.100000)"
fill="#000000" stroke="none">
<path d="M4476 7669 c-7 -19 -111 -272 -229 -564 -346 -855 -495 -1194 -814
-1850 -445 -919 -1199 -2333 -2290 -4298 -140 -252 -252 -461 -250 -464 3 -3
93 44 199 105 656 373 1310 689 1778 860 282 103 666 214 823 237 26 4 49 10
51 14 12 19 -64 269 -123 406 -28 65 -119 417 -136 525 -4 25 -13 52 -21 60
-15 17 -37 184 -53 401 -14 180 -24 206 -54 131 -27 -68 -39 -191 -27 -289 16
-138 47 -289 79 -393 17 -52 29 -96 27 -97 -7 -7 -78 163 -101 243 -63 219
-91 440 -82 664 7 177 28 302 73 440 29 88 96 230 108 230 2 0 -18 -51 -44
-113 -62 -147 -97 -258 -106 -338 -9 -83 7 -69 34 31 19 70 61 177 47 120 -34
-139 -45 -217 -45 -315 0 -122 6 -155 26 -155 24 0 42 43 49 115 10 104 52
334 81 449 20 79 32 106 54 126 30 27 53 88 94 244 15 54 33 104 40 110 8 6
17 28 20 49 10 57 78 182 195 360 76 114 109 156 120 153 10 -3 28 11 49 39
125 165 471 472 632 559 l50 27 -8 -48 c-4 -26 -7 -95 -7 -153 0 -99 2 -109
33 -168 18 -35 28 -61 23 -57 -16 9 -14 -39 6 -127 15 -66 20 -77 35 -72 14 4
18 0 18 -19 0 -13 12 -46 26 -73 14 -27 25 -62 25 -77 -2 -32 25 -80 63 -116
14 -14 26 -30 26 -38 0 -18 89 -183 112 -208 10 -11 27 -31 37 -45 11 -14 27
-25 37 -25 21 0 52 -72 59 -138 2 -23 4 -44 5 -47 0 -3 7 4 15 14 8 11 17 18
19 15 2 -2 16 -49 30 -104 14 -55 42 -131 61 -168 19 -37 35 -76 35 -86 0 -10
9 -26 20 -36 12 -11 20 -31 20 -51 0 -36 58 -155 79 -162 10 -3 12 2 7 22 -13
52 6 24 59 -86 66 -138 117 -290 145 -434 38 -197 40 -488 2 -482 -11 2 -22
-15 -39 -56 -36 -94 -43 -92 -43 17 0 53 -4 97 -9 97 -21 0 -53 -107 -62 -204
-12 -128 -42 -316 -69 -432 -28 -116 -51 -267 -42 -275 4 -3 72 -23 152 -44
614 -162 1374 -502 2298 -1027 106 -61 196 -108 198 -105 3 3 -145 283 -329
624 -1091 2018 -1608 3001 -2086 3963 -407 818 -623 1295 -1081 2386 -51 121
-96 223 -101 228 -5 6 -14 -5 -23 -25z m1151 -5336 c-3 -10 -5 -4 -5 12 0 17
2 24 5 18 2 -7 2 -21 0 -30z m78 -20 c-17 -125 -68 -351 -105 -466 -23 -71
-43 -127 -45 -125 -2 1 14 71 35 153 21 83 48 211 60 285 19 123 41 200 55
200 4 0 3 -21 0 -47z"/>
<path d="M4425 4714 c-21 -8 -50 -24 -63 -37 -25 -23 -82 -101 -82 -112 0 -3
21 9 48 26 51 36 172 131 172 136 0 7 -38 1 -75 -13z"/>
<path d="M4580 4681 c-107 -70 -289 -229 -367 -321 -36 -43 -71 -76 -77 -74
-19 7 -202 -285 -226 -361 -7 -22 -16 -44 -20 -50 -5 -5 -16 -37 -25 -70 -36
-130 -57 -185 -70 -185 -23 0 -57 -139 -98 -405 -6 -44 -16 -80 -22 -80 -6 0
-11 37 -13 85 -3 88 13 184 49 288 27 77 15 78 -21 1 -45 -93 -26 -32 30 99
27 61 45 112 40 112 -4 0 -22 -21 -38 -47 -153 -240 -171 -694 -40 -1039 32
-84 85 -181 93 -172 3 2 -9 38 -25 80 -78 201 -108 472 -62 555 12 20 18 -16
27 -162 8 -109 23 -218 33 -225 4 -3 15 -43 24 -91 51 -251 158 -549 238 -658
29 -39 54 -70 56 -68 2 2 -12 49 -30 105 -54 159 -70 251 -57 326 6 35 8 89 5
122 -10 94 21 274 62 365 19 42 34 82 34 89 0 24 65 133 107 180 24 27 39 50
33 52 -12 4 89 119 130 148 39 28 55 19 130 -76 46 -57 60 -83 60 -108 0 -36
27 -136 41 -150 5 -6 13 3 20 23 15 42 24 28 39 -58 6 -36 13 -76 15 -87 3
-12 14 -24 26 -27 20 -5 21 -11 17 -72 -3 -54 -2 -64 8 -50 7 9 15 12 18 7 8
-13 24 -124 32 -220 6 -74 5 -82 -10 -76 -20 8 -20 5 4 -47 14 -31 20 -66 20
-116 0 -62 -3 -74 -21 -87 -15 -10 -19 -20 -14 -37 6 -19 4 -21 -15 -16 -17 4
-20 2 -15 -11 28 -66 29 -73 18 -109 -5 -21 -14 -46 -18 -56 -6 -14 -2 -17 19
-17 32 0 33 -11 3 -46 -21 -24 -22 -31 -14 -95 8 -54 6 -78 -6 -116 -11 -34
-13 -50 -5 -55 12 -7 -3 -66 -46 -178 -17 -45 -22 -51 -24 -30 -8 61 -20 33
-26 -64 -3 -57 -13 -127 -22 -155 -15 -53 -73 -142 -178 -276 -32 -41 -56 -78
-52 -82 4 -4 68 54 142 127 133 133 232 252 347 420 32 47 62 85 67 85 17 0
122 150 155 220 18 39 39 99 46 134 7 36 21 73 31 83 12 12 25 49 33 91 8 40
28 142 45 227 16 85 35 205 42 265 6 61 17 121 24 135 12 23 13 20 13 -40 0
-36 -6 -101 -14 -145 -35 -190 -24 -200 15 -13 12 56 31 123 43 148 19 43 21
44 27 20 11 -41 25 80 23 200 -3 179 -47 353 -131 520 -26 52 -53 95 -60 98
-8 2 -10 -3 -6 -15 5 -13 4 -15 -5 -7 -6 6 -15 28 -18 50 -3 21 -14 50 -25 63
-10 13 -18 30 -18 37 0 7 -9 28 -19 46 -11 18 -29 70 -41 116 -14 50 -27 82
-35 82 -8 0 -17 15 -20 33 -10 45 -34 89 -46 82 -5 -4 -17 7 -27 24 -9 17 -20
31 -24 31 -9 0 -71 120 -65 126 2 2 -13 23 -35 46 -25 27 -38 50 -37 67 1 14
-8 44 -20 66 -11 21 -21 47 -21 57 0 10 -5 15 -14 12 -9 -4 -15 7 -19 38 -3
24 -9 53 -13 63 -7 18 -6 18 9 6 23 -18 22 -14 -14 64 -31 65 -32 70 -26 171
3 57 3 104 -2 104 -4 0 -40 -22 -81 -49z"/>
<path d="M4835 4235 c4 -45 13 -69 34 -95 30 -37 71 -52 71 -26 0 8 8 20 18
26 14 10 15 12 2 17 -17 7 -99 88 -118 118 -11 17 -12 11 -7 -40z"/>
<path d="M4281 3104 c-53 -58 -74 -94 -56 -94 15 0 95 44 95 51 0 6 -9 5 -20
-1 -19 -10 -30 2 -12 14 16 9 73 96 64 96 -6 0 -38 -30 -71 -66z"/>
<path d="M4092 2779 c-22 -52 -49 -155 -57 -219 l-5 -45 24 50 c14 28 25 64
26 80 1 17 9 62 20 100 10 39 16 72 14 74 -2 2 -12 -16 -22 -40z"/>
<path d="M5349 2470 c-9 -14 -22 -61 -28 -105 -27 -176 -91 -404 -156 -552
-26 -58 -27 -86 -2 -36 37 71 108 247 135 333 37 115 75 306 70 352 l-3 33
-16 -25z"/>
<path d="M4942 1313 c-56 -86 -100 -158 -97 -161 9 -9 81 66 151 155 55 70 64
87 64 122 0 23 -3 41 -8 41 -4 0 -53 -70 -110 -157z"/>
</g>
</svg>
